<?xml version="1.0" encoding="UTF-8" standalone="no"?><!DOCTYPE svg PUBLIC "-//W3C//DTD SVG 1.1//EN" "http://www.w3.org/Graphics/SVG/1.1/DTD/svg11.dtd"><svg width="100%" height="100%" viewBox="0 0 1245 1245" version="1.1" xmlns="http://www.w3.org/2000/svg" xmlns:xlink="http://www.w3.org/1999/xlink" xml:space="preserve" xmlns:serif="http://www.serif.com/" style="fill-rule:evenodd;clip-rule:evenodd;stroke-linejoin:round;stroke-miterlimit:2;"><g><path d="M468.958,1244.3c162.516,0 318.377,-64.559 433.293,-179.476c114.917,-114.917 179.477,-270.777 179.477,-433.294l-153.193,0c0,121.888 -48.42,238.783 -134.607,324.97c-86.188,86.188 -203.083,134.608 -324.97,134.608l-0,153.192Z" style="fill:#262626;"/><path d="M775.343,-0c-162.517,-0 -318.378,64.56 -433.294,179.476c-114.917,114.917 -179.476,270.777 -179.476,433.294l153.192,0c0,-121.888 48.42,-238.783 134.607,-324.97c86.188,-86.188 203.083,-134.607 324.971,-134.607l-0,-153.193Z" style="fill:#262626;"/><path d="M1244.3,775.343c0,-162.517 -64.559,-318.378 -179.476,-433.294c-114.917,-114.917 -270.777,-179.476 -433.294,-179.476l0,153.192c121.888,0 238.783,48.42 324.97,134.607c86.188,86.188 134.608,203.083 134.608,324.971l153.192,-0Z" style="fill:#ff6800;"/><path d="M-0,468.958c-0,162.516 64.56,318.377 179.476,433.293c114.917,114.917 270.777,179.477 433.294,179.477l0,-153.193c-121.888,0 -238.783,-48.42 -324.97,-134.607c-86.188,-86.188 -134.607,-203.083 -134.607,-324.97l-153.193,-0Z" style="fill:#ff6800;"/></g></svg>